<svg viewBox="0 0 820 460" xmlns="http://www.w3.org/2000/svg" font-family="system-ui,Arial,sans-serif" style="background:#fff">
<text x="78" y="24" font-size="18" font-weight="700">Insertion time per element</text>
<text x="78" y="40" font-size="12" fill="#666">nanoseconds / insert vs. number of elements (log-log)</text>
<line x1="78.0" y1="400.0" x2="620.0" y2="400.0" stroke="#eee"/>
<text x="70.0" y="404.0" font-size="11" fill="#888" text-anchor="end">1e1</text>
<line x1="78.0" y1="311.5" x2="620.0" y2="311.5" stroke="#eee"/>
<text x="70.0" y="315.5" font-size="11" fill="#888" text-anchor="end">1e2</text>
<line x1="78.0" y1="223.0" x2="620.0" y2="223.0" stroke="#eee"/>
<text x="70.0" y="227.0" font-size="11" fill="#888" text-anchor="end">1e3</text>
<line x1="78.0" y1="134.5" x2="620.0" y2="134.5" stroke="#eee"/>
<text x="70.0" y="138.5" font-size="11" fill="#888" text-anchor="end">1e4</text>
<line x1="78.0" y1="46.0" x2="620.0" y2="46.0" stroke="#eee"/>
<text x="70.0" y="50.0" font-size="11" fill="#888" text-anchor="end">1e5</text>
<line x1="78.0" y1="46.0" x2="78.0" y2="400.0" stroke="#eee"/>
<text x="78.0" y="418.0" font-size="11" fill="#888" text-anchor="middle">1e3</text>
<line x1="264.1" y1="46.0" x2="264.1" y2="400.0" stroke="#eee"/>
<text x="264.1" y="418.0" font-size="11" fill="#888" text-anchor="middle">1e4</text>
<line x1="450.1" y1="46.0" x2="450.1" y2="400.0" stroke="#eee"/>
<text x="450.1" y="418.0" font-size="11" fill="#888" text-anchor="middle">1e5</text>
<line x1="78.0" y1="46.0" x2="78.0" y2="400.0" stroke="#333"/>
<line x1="78.0" y1="400.0" x2="620.0" y2="400.0" stroke="#333"/>
<polyline fill="none" stroke="#dc2626" stroke-width="2.5" points="78.0,174.5 134.0,159.6 208.1,123.0 264.1,90.8 320.1,63.9 "/>
<circle cx="78.0" cy="174.5" r="3.5" fill="#dc2626"/>
<circle cx="134.0" cy="159.6" r="3.5" fill="#dc2626"/>
<circle cx="208.1" cy="123.0" r="3.5" fill="#dc2626"/>
<circle cx="264.1" cy="90.8" r="3.5" fill="#dc2626"/>
<circle cx="320.1" cy="63.9" r="3.5" fill="#dc2626"/>
<polyline fill="none" stroke="#2563eb" stroke-width="2.5" points="78.0,309.6 134.0,316.8 208.1,322.9 264.1,341.6 320.1,344.3 394.1,314.8 450.1,311.5 506.1,302.7 580.2,256.0 620.0,240.3 "/>
<circle cx="78.0" cy="309.6" r="3.5" fill="#2563eb"/>
<circle cx="134.0" cy="316.8" r="3.5" fill="#2563eb"/>
<circle cx="208.1" cy="322.9" r="3.5" fill="#2563eb"/>
<circle cx="264.1" cy="341.6" r="3.5" fill="#2563eb"/>
<circle cx="320.1" cy="344.3" r="3.5" fill="#2563eb"/>
<circle cx="394.1" cy="314.8" r="3.5" fill="#2563eb"/>
<circle cx="450.1" cy="311.5" r="3.5" fill="#2563eb"/>
<circle cx="506.1" cy="302.7" r="3.5" fill="#2563eb"/>
<circle cx="580.2" cy="256.0" r="3.5" fill="#2563eb"/>
<circle cx="620.0" cy="240.3" r="3.5" fill="#2563eb"/>
<polyline fill="none" stroke="#16a34a" stroke-width="2.5" points="78.0,297.4 134.0,299.4 208.1,296.9 264.1,295.3 320.1,290.3 394.1,277.6 450.1,280.4 506.1,276.8 580.2,272.4 620.0,277.7 "/>
<circle cx="78.0" cy="297.4" r="3.5" fill="#16a34a"/>
<circle cx="134.0" cy="299.4" r="3.5" fill="#16a34a"/>
<circle cx="208.1" cy="296.9" r="3.5" fill="#16a34a"/>
<circle cx="264.1" cy="295.3" r="3.5" fill="#16a34a"/>
<circle cx="320.1" cy="290.3" r="3.5" fill="#16a34a"/>
<circle cx="394.1" cy="277.6" r="3.5" fill="#16a34a"/>
<circle cx="450.1" cy="280.4" r="3.5" fill="#16a34a"/>
<circle cx="506.1" cy="276.8" r="3.5" fill="#16a34a"/>
<circle cx="580.2" cy="272.4" r="3.5" fill="#16a34a"/>
<circle cx="620.0" cy="277.7" r="3.5" fill="#16a34a"/>
<polyline fill="none" stroke="#d97706" stroke-width="2.5" points="78.0,277.0 134.0,278.2 208.1,264.8 264.1,265.6 320.1,274.1 394.1,274.2 450.1,276.8 506.1,274.4 580.2,264.7 620.0,265.5 "/>
<circle cx="78.0" cy="277.0" r="3.5" fill="#d97706"/>
<circle cx="134.0" cy="278.2" r="3.5" fill="#d97706"/>
<circle cx="208.1" cy="264.8" r="3.5" fill="#d97706"/>
<circle cx="264.1" cy="265.6" r="3.5" fill="#d97706"/>
<circle cx="320.1" cy="274.1" r="3.5" fill="#d97706"/>
<circle cx="394.1" cy="274.2" r="3.5" fill="#d97706"/>
<circle cx="450.1" cy="276.8" r="3.5" fill="#d97706"/>
<circle cx="506.1" cy="274.4" r="3.5" fill="#d97706"/>
<circle cx="580.2" cy="264.7" r="3.5" fill="#d97706"/>
<circle cx="620.0" cy="265.5" r="3.5" fill="#d97706"/>
<polyline fill="none" stroke="#7c3aed" stroke-width="2.5" points="78.0,123.5 134.0,131.1 208.1,126.6 264.1,134.8 320.1,141.6 394.1,114.4 450.1,117.1 506.1,111.8 580.2,86.6 620.0,52.1 "/>
<circle cx="78.0" cy="123.5" r="3.5" fill="#7c3aed"/>
<circle cx="134.0" cy="131.1" r="3.5" fill="#7c3aed"/>
<circle cx="208.1" cy="126.6" r="3.5" fill="#7c3aed"/>
<circle cx="264.1" cy="134.8" r="3.5" fill="#7c3aed"/>
<circle cx="320.1" cy="141.6" r="3.5" fill="#7c3aed"/>
<circle cx="394.1" cy="114.4" r="3.5" fill="#7c3aed"/>
<circle cx="450.1" cy="117.1" r="3.5" fill="#7c3aed"/>
<circle cx="506.1" cy="111.8" r="3.5" fill="#7c3aed"/>
<circle cx="580.2" cy="86.6" r="3.5" fill="#7c3aed"/>
<circle cx="620.0" cy="52.1" r="3.5" fill="#7c3aed"/>
<rect x="640" y="56" width="14" height="14" fill="#dc2626"/>
<text x="660" y="68" font-size="13">Linked List</text>
<rect x="640" y="78" width="14" height="14" fill="#2563eb"/>
<text x="660" y="90" font-size="13">Hash Table</text>
<rect x="640" y="100" width="14" height="14" fill="#16a34a"/>
<text x="660" y="112" font-size="13">AVL Tree</text>
<rect x="640" y="122" width="14" height="14" fill="#d97706"/>
<text x="660" y="134" font-size="13">Skip List</text>
<rect x="640" y="144" width="14" height="14" fill="#7c3aed"/>
<text x="660" y="156" font-size="13">Trie *</text>
<text x="640" y="172" font-size="11" fill="#999">* keyed on title</text>
</svg>
