<svg viewBox="0 0 820 460" xmlns="http://www.w3.org/2000/svg" font-family="system-ui,Arial,sans-serif" style="background:#fff">
<text x="78" y="24" font-size="18" font-weight="700">Average query time (mixed hit/miss)</text>
<text x="78" y="40" font-size="12" fill="#666">nanoseconds / query vs. number of elements (log-log)</text>
<line x1="78.0" y1="400.0" x2="620.0" y2="400.0" stroke="#eee"/>
<text x="70.0" y="404.0" font-size="11" fill="#888" text-anchor="end">1e1</text>
<line x1="78.0" y1="311.5" x2="620.0" y2="311.5" stroke="#eee"/>
<text x="70.0" y="315.5" font-size="11" fill="#888" text-anchor="end">1e2</text>
<line x1="78.0" y1="223.0" x2="620.0" y2="223.0" stroke="#eee"/>
<text x="70.0" y="227.0" font-size="11" fill="#888" text-anchor="end">1e3</text>
<line x1="78.0" y1="134.5" x2="620.0" y2="134.5" stroke="#eee"/>
<text x="70.0" y="138.5" font-size="11" fill="#888" text-anchor="end">1e4</text>
<line x1="78.0" y1="46.0" x2="620.0" y2="46.0" stroke="#eee"/>
<text x="70.0" y="50.0" font-size="11" fill="#888" text-anchor="end">1e5</text>
<line x1="78.0" y1="46.0" x2="78.0" y2="400.0" stroke="#eee"/>
<text x="78.0" y="418.0" font-size="11" fill="#888" text-anchor="middle">1e3</text>
<line x1="264.1" y1="46.0" x2="264.1" y2="400.0" stroke="#eee"/>
<text x="264.1" y="418.0" font-size="11" fill="#888" text-anchor="middle">1e4</text>
<line x1="450.1" y1="46.0" x2="450.1" y2="400.0" stroke="#eee"/>
<text x="450.1" y="418.0" font-size="11" fill="#888" text-anchor="middle">1e5</text>
<line x1="78.0" y1="46.0" x2="78.0" y2="400.0" stroke="#333"/>
<line x1="78.0" y1="400.0" x2="620.0" y2="400.0" stroke="#333"/>
<polyline fill="none" stroke="#dc2626" stroke-width="2.5" points="78.0,177.2 134.0,153.5 208.1,112.7 264.1,83.1 320.1,50.1 "/>
<circle cx="78.0" cy="177.2" r="3.5" fill="#dc2626"/>
<circle cx="134.0" cy="153.5" r="3.5" fill="#dc2626"/>
<circle cx="208.1" cy="112.7" r="3.5" fill="#dc2626"/>
<circle cx="264.1" cy="83.1" r="3.5" fill="#dc2626"/>
<circle cx="320.1" cy="50.1" r="3.5" fill="#dc2626"/>
<polyline fill="none" stroke="#2563eb" stroke-width="2.5" points="78.0,383.9 134.0,378.6 208.1,340.7 264.1,351.8 320.1,340.6 394.1,295.9 450.1,306.1 506.1,285.5 580.2,245.5 620.0,224.5 "/>
<circle cx="78.0" cy="383.9" r="3.5" fill="#2563eb"/>
<circle cx="134.0" cy="378.6" r="3.5" fill="#2563eb"/>
<circle cx="208.1" cy="340.7" r="3.5" fill="#2563eb"/>
<circle cx="264.1" cy="351.8" r="3.5" fill="#2563eb"/>
<circle cx="320.1" cy="340.6" r="3.5" fill="#2563eb"/>
<circle cx="394.1" cy="295.9" r="3.5" fill="#2563eb"/>
<circle cx="450.1" cy="306.1" r="3.5" fill="#2563eb"/>
<circle cx="506.1" cy="285.5" r="3.5" fill="#2563eb"/>
<circle cx="580.2" cy="245.5" r="3.5" fill="#2563eb"/>
<circle cx="620.0" cy="224.5" r="3.5" fill="#2563eb"/>
<polyline fill="none" stroke="#16a34a" stroke-width="2.5" points="78.0,308.5 134.0,307.1 208.1,295.2 264.1,268.9 320.1,250.2 394.1,234.8 450.1,241.7 506.1,256.3 580.2,226.0 620.0,241.2 "/>
<circle cx="78.0" cy="308.5" r="3.5" fill="#16a34a"/>
<circle cx="134.0" cy="307.1" r="3.5" fill="#16a34a"/>
<circle cx="208.1" cy="295.2" r="3.5" fill="#16a34a"/>
<circle cx="264.1" cy="268.9" r="3.5" fill="#16a34a"/>
<circle cx="320.1" cy="250.2" r="3.5" fill="#16a34a"/>
<circle cx="394.1" cy="234.8" r="3.5" fill="#16a34a"/>
<circle cx="450.1" cy="241.7" r="3.5" fill="#16a34a"/>
<circle cx="506.1" cy="256.3" r="3.5" fill="#16a34a"/>
<circle cx="580.2" cy="226.0" r="3.5" fill="#16a34a"/>
<circle cx="620.0" cy="241.2" r="3.5" fill="#16a34a"/>
<polyline fill="none" stroke="#d97706" stroke-width="2.5" points="78.0,300.0 134.0,290.5 208.1,234.5 264.1,265.7 320.1,259.6 394.1,248.0 450.1,235.9 506.1,245.8 580.2,240.1 620.0,250.1 "/>
<circle cx="78.0" cy="300.0" r="3.5" fill="#d97706"/>
<circle cx="134.0" cy="290.5" r="3.5" fill="#d97706"/>
<circle cx="208.1" cy="234.5" r="3.5" fill="#d97706"/>
<circle cx="264.1" cy="265.7" r="3.5" fill="#d97706"/>
<circle cx="320.1" cy="259.6" r="3.5" fill="#d97706"/>
<circle cx="394.1" cy="248.0" r="3.5" fill="#d97706"/>
<circle cx="450.1" cy="235.9" r="3.5" fill="#d97706"/>
<circle cx="506.1" cy="245.8" r="3.5" fill="#d97706"/>
<circle cx="580.2" cy="240.1" r="3.5" fill="#d97706"/>
<circle cx="620.0" cy="250.1" r="3.5" fill="#d97706"/>
<polyline fill="none" stroke="#7c3aed" stroke-width="2.5" points="78.0,332.4 134.0,325.3 208.1,294.0 264.1,296.9 320.1,248.0 394.1,230.7 450.1,247.4 506.1,123.7 580.2,189.7 620.0,131.0 "/>
<circle cx="78.0" cy="332.4" r="3.5" fill="#7c3aed"/>
<circle cx="134.0" cy="325.3" r="3.5" fill="#7c3aed"/>
<circle cx="208.1" cy="294.0" r="3.5" fill="#7c3aed"/>
<circle cx="264.1" cy="296.9" r="3.5" fill="#7c3aed"/>
<circle cx="320.1" cy="248.0" r="3.5" fill="#7c3aed"/>
<circle cx="394.1" cy="230.7" r="3.5" fill="#7c3aed"/>
<circle cx="450.1" cy="247.4" r="3.5" fill="#7c3aed"/>
<circle cx="506.1" cy="123.7" r="3.5" fill="#7c3aed"/>
<circle cx="580.2" cy="189.7" r="3.5" fill="#7c3aed"/>
<circle cx="620.0" cy="131.0" r="3.5" fill="#7c3aed"/>
<rect x="640" y="56" width="14" height="14" fill="#dc2626"/>
<text x="660" y="68" font-size="13">Linked List</text>
<rect x="640" y="78" width="14" height="14" fill="#2563eb"/>
<text x="660" y="90" font-size="13">Hash Table</text>
<rect x="640" y="100" width="14" height="14" fill="#16a34a"/>
<text x="660" y="112" font-size="13">AVL Tree</text>
<rect x="640" y="122" width="14" height="14" fill="#d97706"/>
<text x="660" y="134" font-size="13">Skip List</text>
<rect x="640" y="144" width="14" height="14" fill="#7c3aed"/>
<text x="660" y="156" font-size="13">Trie *</text>
<text x="640" y="172" font-size="11" fill="#999">* keyed on title</text>
</svg>
