<svg viewBox="0 0 820 460" xmlns="http://www.w3.org/2000/svg" font-family="system-ui,Arial,sans-serif" style="background:#fff">
<text x="78" y="24" font-size="18" font-weight="700">Search time (hit) per query</text>
<text x="78" y="40" font-size="12" fill="#666">nanoseconds / search vs. number of elements (log-log)</text>
<line x1="78.0" y1="400.0" x2="620.0" y2="400.0" stroke="#eee"/>
<text x="70.0" y="404.0" font-size="11" fill="#888" text-anchor="end">1e1</text>
<line x1="78.0" y1="311.5" x2="620.0" y2="311.5" stroke="#eee"/>
<text x="70.0" y="315.5" font-size="11" fill="#888" text-anchor="end">1e2</text>
<line x1="78.0" y1="223.0" x2="620.0" y2="223.0" stroke="#eee"/>
<text x="70.0" y="227.0" font-size="11" fill="#888" text-anchor="end">1e3</text>
<line x1="78.0" y1="134.5" x2="620.0" y2="134.5" stroke="#eee"/>
<text x="70.0" y="138.5" font-size="11" fill="#888" text-anchor="end">1e4</text>
<line x1="78.0" y1="46.0" x2="620.0" y2="46.0" stroke="#eee"/>
<text x="70.0" y="50.0" font-size="11" fill="#888" text-anchor="end">1e5</text>
<line x1="78.0" y1="46.0" x2="78.0" y2="400.0" stroke="#eee"/>
<text x="78.0" y="418.0" font-size="11" fill="#888" text-anchor="middle">1e3</text>
<line x1="264.1" y1="46.0" x2="264.1" y2="400.0" stroke="#eee"/>
<text x="264.1" y="418.0" font-size="11" fill="#888" text-anchor="middle">1e4</text>
<line x1="450.1" y1="46.0" x2="450.1" y2="400.0" stroke="#eee"/>
<text x="450.1" y="418.0" font-size="11" fill="#888" text-anchor="middle">1e5</text>
<line x1="78.0" y1="46.0" x2="78.0" y2="400.0" stroke="#333"/>
<line x1="78.0" y1="400.0" x2="620.0" y2="400.0" stroke="#333"/>
<polyline fill="none" stroke="#dc2626" stroke-width="2.5" points="78.0,178.0 134.0,157.0 208.1,123.9 264.1,88.4 320.1,57.7 "/>
<circle cx="78.0" cy="178.0" r="3.5" fill="#dc2626"/>
<circle cx="134.0" cy="157.0" r="3.5" fill="#dc2626"/>
<circle cx="208.1" cy="123.9" r="3.5" fill="#dc2626"/>
<circle cx="264.1" cy="88.4" r="3.5" fill="#dc2626"/>
<circle cx="320.1" cy="57.7" r="3.5" fill="#dc2626"/>
<polyline fill="none" stroke="#2563eb" stroke-width="2.5" points="78.0,376.3 134.0,351.7 208.1,352.6 264.1,352.7 320.1,340.4 394.1,292.0 450.1,290.9 506.1,282.2 580.2,235.0 620.0,218.9 "/>
<circle cx="78.0" cy="376.3" r="3.5" fill="#2563eb"/>
<circle cx="134.0" cy="351.7" r="3.5" fill="#2563eb"/>
<circle cx="208.1" cy="352.6" r="3.5" fill="#2563eb"/>
<circle cx="264.1" cy="352.7" r="3.5" fill="#2563eb"/>
<circle cx="320.1" cy="340.4" r="3.5" fill="#2563eb"/>
<circle cx="394.1" cy="292.0" r="3.5" fill="#2563eb"/>
<circle cx="450.1" cy="290.9" r="3.5" fill="#2563eb"/>
<circle cx="506.1" cy="282.2" r="3.5" fill="#2563eb"/>
<circle cx="580.2" cy="235.0" r="3.5" fill="#2563eb"/>
<circle cx="620.0" cy="218.9" r="3.5" fill="#2563eb"/>
<polyline fill="none" stroke="#16a34a" stroke-width="2.5" points="78.0,307.0 134.0,297.6 208.1,285.9 264.1,264.3 320.1,247.0 394.1,224.2 450.1,232.2 506.1,232.6 580.2,218.4 620.0,226.8 "/>
<circle cx="78.0" cy="307.0" r="3.5" fill="#16a34a"/>
<circle cx="134.0" cy="297.6" r="3.5" fill="#16a34a"/>
<circle cx="208.1" cy="285.9" r="3.5" fill="#16a34a"/>
<circle cx="264.1" cy="264.3" r="3.5" fill="#16a34a"/>
<circle cx="320.1" cy="247.0" r="3.5" fill="#16a34a"/>
<circle cx="394.1" cy="224.2" r="3.5" fill="#16a34a"/>
<circle cx="450.1" cy="232.2" r="3.5" fill="#16a34a"/>
<circle cx="506.1" cy="232.6" r="3.5" fill="#16a34a"/>
<circle cx="580.2" cy="218.4" r="3.5" fill="#16a34a"/>
<circle cx="620.0" cy="226.8" r="3.5" fill="#16a34a"/>
<polyline fill="none" stroke="#d97706" stroke-width="2.5" points="78.0,280.5 134.0,269.1 208.1,255.5 264.1,248.1 320.1,237.4 394.1,232.3 450.1,210.7 506.1,219.5 580.2,215.1 620.0,224.4 "/>
<circle cx="78.0" cy="280.5" r="3.5" fill="#d97706"/>
<circle cx="134.0" cy="269.1" r="3.5" fill="#d97706"/>
<circle cx="208.1" cy="255.5" r="3.5" fill="#d97706"/>
<circle cx="264.1" cy="248.1" r="3.5" fill="#d97706"/>
<circle cx="320.1" cy="237.4" r="3.5" fill="#d97706"/>
<circle cx="394.1" cy="232.3" r="3.5" fill="#d97706"/>
<circle cx="450.1" cy="210.7" r="3.5" fill="#d97706"/>
<circle cx="506.1" cy="219.5" r="3.5" fill="#d97706"/>
<circle cx="580.2" cy="215.1" r="3.5" fill="#d97706"/>
<circle cx="620.0" cy="224.4" r="3.5" fill="#d97706"/>
<polyline fill="none" stroke="#7c3aed" stroke-width="2.5" points="78.0,299.4 134.0,283.9 208.1,264.0 264.1,259.6 320.1,247.7 394.1,222.4 450.1,220.3 506.1,81.0 580.2,123.7 620.0,49.9 "/>
<circle cx="78.0" cy="299.4" r="3.5" fill="#7c3aed"/>
<circle cx="134.0" cy="283.9" r="3.5" fill="#7c3aed"/>
<circle cx="208.1" cy="264.0" r="3.5" fill="#7c3aed"/>
<circle cx="264.1" cy="259.6" r="3.5" fill="#7c3aed"/>
<circle cx="320.1" cy="247.7" r="3.5" fill="#7c3aed"/>
<circle cx="394.1" cy="222.4" r="3.5" fill="#7c3aed"/>
<circle cx="450.1" cy="220.3" r="3.5" fill="#7c3aed"/>
<circle cx="506.1" cy="81.0" r="3.5" fill="#7c3aed"/>
<circle cx="580.2" cy="123.7" r="3.5" fill="#7c3aed"/>
<circle cx="620.0" cy="49.9" r="3.5" fill="#7c3aed"/>
<rect x="640" y="56" width="14" height="14" fill="#dc2626"/>
<text x="660" y="68" font-size="13">Linked List</text>
<rect x="640" y="78" width="14" height="14" fill="#2563eb"/>
<text x="660" y="90" font-size="13">Hash Table</text>
<rect x="640" y="100" width="14" height="14" fill="#16a34a"/>
<text x="660" y="112" font-size="13">AVL Tree</text>
<rect x="640" y="122" width="14" height="14" fill="#d97706"/>
<text x="660" y="134" font-size="13">Skip List</text>
<rect x="640" y="144" width="14" height="14" fill="#7c3aed"/>
<text x="660" y="156" font-size="13">Trie *</text>
<text x="640" y="172" font-size="11" fill="#999">* keyed on title</text>
</svg>
